<svg id="Capa_1" data-name="Capa 1" xmlns="http://www.w3.org/2000/svg" viewBox="0 0 54.31 54.31"><defs><style>.cls-1{fill:#fff;}</style></defs><path class="cls-1" d="M18.11,27.16a9.05,9.05,0,1,1,9.05,9.05,9.06,9.06,0,0,1-9-9m-4.9,0a13.95,13.95,0,1,0,14-13.95,13.95,13.95,0,0,0-13.95,14M38.4,12.66A3.26,3.26,0,1,0,41.65,9.4a3.25,3.25,0,0,0-3.25,3.26M16.18,49.26a15.14,15.14,0,0,1-5-.93A8.47,8.47,0,0,1,8,46.3a8.43,8.43,0,0,1-2-3.12,14.82,14.82,0,0,1-.94-5c-.13-2.86-.16-3.72-.16-11s0-8.11.16-11a15,15,0,0,1,.94-5A8.35,8.35,0,0,1,8,8a8.5,8.5,0,0,1,3.12-2,15.14,15.14,0,0,1,5-.93c2.87-.13,3.73-.16,11-.16s8.11,0,11,.16a15.15,15.15,0,0,1,5,.93A8.58,8.58,0,0,1,46.3,8a8.35,8.35,0,0,1,2,3.12,15.08,15.08,0,0,1,.93,5c.14,2.87.16,3.73.16,11s0,8.11-.16,11a15.15,15.15,0,0,1-.93,5,8.43,8.43,0,0,1-2,3.12,8.56,8.56,0,0,1-3.12,2,15.15,15.15,0,0,1-5,.93c-2.86.13-3.72.16-11,.16s-8.11,0-11-.16M16,.16A19.9,19.9,0,0,0,9.37,1.43,13.22,13.22,0,0,0,4.56,4.56,13.22,13.22,0,0,0,1.43,9.37,19.9,19.9,0,0,0,.16,16C0,18.86,0,19.78,0,27.16s0,8.3.16,11.19A20,20,0,0,0,1.43,45a13.3,13.3,0,0,0,3.13,4.81,13.35,13.35,0,0,0,4.81,3.13A19.93,19.93,0,0,0,16,54.15c2.9.13,3.82.16,11.2.16s8.3,0,11.19-.16A20,20,0,0,0,45,52.89,13.86,13.86,0,0,0,52.89,45a20,20,0,0,0,1.26-6.6c.13-2.89.16-3.82.16-11.19s0-8.3-.16-11.2a19.93,19.93,0,0,0-1.26-6.59,13.35,13.35,0,0,0-3.13-4.81A13.3,13.3,0,0,0,45,1.43,19.7,19.7,0,0,0,38.36.16C35.46,0,34.53,0,27.16,0S18.86,0,16,.16"/></svg>