<svg id="Capa_1" data-name="Capa 1" xmlns="http://www.w3.org/2000/svg" viewBox="0 0 25.36 30.87"><path d="M21.05,16.85H4.18a.75.75,0,1,0,0,1.5H21.05a.75.75,0,1,0,0-1.5Z"/><path d="M19,13.35a.75.75,0,0,0,0-1.5H6.21a.75.75,0,1,0,0,1.5Z"/><path d="M25.32.77v0A.75.75,0,0,0,24.55,0c-4,.07-8,.12-12,.33-2,.09-4,.18-6,.2H5.07A6.31,6.31,0,0,0,3.52.66,4.36,4.36,0,0,0,1,2.47,4.22,4.22,0,0,0,.33,4,11.05,11.05,0,0,0,.2,5.53l-.15,3c-.07,2-.06,4,0,6,.06,3.73.2,7.45.51,11.17a3.5,3.5,0,0,0-.27,1.2,3.67,3.67,0,0,0,1.6,3.18,3.77,3.77,0,0,0,1.79.62c.6,0,1.08,0,1.63.06l6.43.12q3.21,0,6.42-.09c2.14-.07,4.28-.3,6.42-.44h0a.25.25,0,0,0,.23-.27V30a.24.24,0,0,0-.23-.22,2.85,2.85,0,0,1-1.93-.86,2.89,2.89,0,0,1,0-4A2.84,2.84,0,0,1,24.58,24a.25.25,0,0,0,.23-.21v-.08h0a.24.24,0,0,0-.16-.23c.29-3.74.47-7.48.57-11.23.07-1.91.11-3.83.13-5.74S25.36,2.68,25.32.77ZM21.68,26.89a3.4,3.4,0,0,0,1.47,2.81c-1.67-.13-3.34-.28-5-.34-2.14-.08-4.28-.1-6.42-.09l-6.43.12-1.57,0a2.58,2.58,0,0,1-1.24-.33,2.77,2.77,0,0,1-1.39-2.21,2.81,2.81,0,0,1,1.23-2.46A2.68,2.68,0,0,1,3.69,24c.51,0,1.06,0,1.59,0,2.15,0,4.29.15,6.43.27s4.28.21,6.42.15c1.69,0,3.38-.17,5.07-.3A3.43,3.43,0,0,0,21.68,26.89Zm-3.55-3.82c-2.14-.06-4.28,0-6.42.15s-4.28.28-6.43.27H3.67A3.56,3.56,0,0,0,2,24a3.48,3.48,0,0,0-1.16,1.1c.28-3.52.41-7,.46-10.56,0-2,0-4,0-6l-.14-3a11.68,11.68,0,0,1,0-1.43,3.46,3.46,0,0,1,.4-1.29A3.38,3.38,0,0,1,3.64,1.13,14.07,14.07,0,0,1,6.57,1c2,0,4,.12,6,.2,3.74.2,7.48.26,11.22.32,0,1.67,0,3.33,0,5,0,1.91.06,3.83.13,5.74.1,3.73.28,7.47.57,11.2C22.35,23.32,20.24,23.11,18.13,23.07Z"/><path d="M21.05,6.85H4.18a.75.75,0,1,0,0,1.5H21.05a.75.75,0,0,0,0-1.5Z"/></svg>