<svg id="Capa_1" data-name="Capa 1" xmlns="http://www.w3.org/2000/svg" viewBox="0 0 29.09 29.99"><path d="M25.17,4.63a13.77,13.77,0,0,0-4.71-3.41A14.57,14.57,0,0,0,4.11,4.48,14.46,14.46,0,0,0,0,15.08,15.71,15.71,0,0,0,9.09,28.67,14.64,14.64,0,0,0,14.71,30a13.65,13.65,0,0,0,10.44-4.47,15.54,15.54,0,0,0,3.94-10.44A15.57,15.57,0,0,0,25.17,4.63ZM24.5,24.87a15.3,15.3,0,0,1-9.79,3.91A13.69,13.69,0,0,1,4.77,25a13.32,13.32,0,0,1-4-10A14.26,14.26,0,0,1,5.09,5.46a13.93,13.93,0,0,1,9.62-3.9,14.69,14.69,0,0,1,9.78,3.75,13.23,13.23,0,0,1,4.45,9.77A13.19,13.19,0,0,1,24.5,24.87Z"/><path d="M21.74,14.74c-1-.5-2-1-3-1.54a32.73,32.73,0,0,1-2.87-1.79L13.07,9.49A27.48,27.48,0,0,0,10.14,7.8l-.05,0a.6.6,0,0,0-.3-.07.59.59,0,0,0-.56.63c.06,1.12.22,2.25.34,3.37s.19,2.26.2,3.38-.09,2.26-.22,3.38-.28,2.25-.36,3.38a.57.57,0,0,0,.06.31.62.62,0,0,0,.83.3l.09,0c1-.49,2-1,3-1.58s1.95-1.13,2.9-1.73l2.87-1.78c.95-.6,1.88-1.25,2.81-1.89l.05,0a.47.47,0,0,0,.13-.15A.38.38,0,0,0,21.74,14.74ZM18.3,16.23l-3,1.59c-1,.53-2,1.09-3,1.65l-2,1.24c-.08-.75-.18-1.5-.26-2.25a31.78,31.78,0,0,1-.21-3.38,29.61,29.61,0,0,1,.2-3.38c.08-.78.17-1.56.25-2.34.68.42,1.38.82,2.1,1.18L15.52,12a31.4,31.4,0,0,1,3,1.59c.76.45,1.5.94,2.24,1.43C19.92,15.41,19.1,15.81,18.3,16.23Z"/></svg>