<svg id="Capa_1" data-name="Capa 1" xmlns="http://www.w3.org/2000/svg" viewBox="0 0 29.09 30"><defs><style>.cls-1{fill:#1d2123;}</style></defs><path class="cls-1" d="M25.17,4.63a13.77,13.77,0,0,0-4.71-3.41A14.57,14.57,0,0,0,4.11,4.48,14.46,14.46,0,0,0,0,15.08,15.71,15.71,0,0,0,9.09,28.67,14.64,14.64,0,0,0,14.71,30a13.65,13.65,0,0,0,10.44-4.47,15.54,15.54,0,0,0,3.94-10.44A15.57,15.57,0,0,0,25.17,4.63ZM24.5,24.87a15.25,15.25,0,0,1-9.79,3.91A13.69,13.69,0,0,1,4.77,25a13.3,13.3,0,0,1-4-10A14.26,14.26,0,0,1,5.09,5.46a13.93,13.93,0,0,1,9.62-3.9,14.69,14.69,0,0,1,9.78,3.75,13.23,13.23,0,0,1,4.45,9.77A13.19,13.19,0,0,1,24.5,24.87Z"/><path class="cls-1" d="M23.07,10.07a18.92,18.92,0,0,0-2.52,2,20,20,0,0,0-2.17,2.33c-.65.84-1.19,1.79-1.87,2.6a16.32,16.32,0,0,1-1.9,1.91c-.54-.76-1.09-1.51-1.69-2.22s-1.35-1.64-2.08-2.41A33.52,33.52,0,0,0,6,10.07a.1.1,0,0,0-.09,0,.08.08,0,0,0,0,.11,33.46,33.46,0,0,0,3.75,5.19c.7.79,1.46,1.54,2.22,2.28a30.21,30.21,0,0,0,2.36,2.16l.08.07h0a.36.36,0,0,0,.5-.08,17.83,17.83,0,0,1,2-2.47c.75-.75,1.64-1.37,2.43-2.09a19.84,19.84,0,0,0,2.11-2.38,19,19,0,0,0,1.78-2.69.08.08,0,0,0,0-.08A.07.07,0,0,0,23.07,10.07Z"/></svg>